<?xml version="1.0" encoding="utf-8" standalone="no"?>
<!DOCTYPE svg PUBLIC "-//W3C//DTD SVG 1.1//EN"
  "http://www.w3.org/Graphics/SVG/1.1/DTD/svg11.dtd">
<svg xmlns:xlink="http://www.w3.org/1999/xlink" width="390.982812pt" height="337.074375pt" viewBox="0 0 390.982812 337.074375" xmlns="http://www.w3.org/2000/svg" version="1.1">
 <metadata>
  <rdf:RDF xmlns:dc="http://purl.org/dc/elements/1.1/" xmlns:cc="http://creativecommons.org/ns#" xmlns:rdf="http://www.w3.org/1999/02/22-rdf-syntax-ns#">
   <cc:Work>
    <dc:type rdf:resource="http://purl.org/dc/dcmitype/StillImage"/>
    <dc:date>2026-04-21T22:29:46.978042</dc:date>
    <dc:format>image/svg+xml</dc:format>
    <dc:creator>
     <cc:Agent>
      <dc:title>Matplotlib v3.10.8, https://matplotlib.org/</dc:title>
     </cc:Agent>
    </dc:creator>
   </cc:Work>
  </rdf:RDF>
 </metadata>
 <defs>
  <style type="text/css">*{stroke-linejoin: round; stroke-linecap: butt}</style>
 </defs>
 <g id="figure_1">
  <g id="patch_1">
   <path d="M 0 337.074375 
L 390.982812 337.074375 
L 390.982812 0 
L 0 0 
z
" style="fill: #ffffff"/>
  </g>
  <g id="axes_1">
   <g id="patch_2">
    <path d="M 48.982813 299.518125 
L 383.782813 299.518125 
L 383.782813 22.318125 
L 48.982813 22.318125 
z
" style="fill: #ffffff"/>
   </g>
   <g id="patch_3">
    <path d="M 352.715553 212.821122 
Q 348.499068 214.311507 344.282582 215.801892 
Q 345.620165 211.534472 346.957749 207.267053 
z
" clip-path="url(#p968442c0c9)" style="fill: #1f77b4"/>
   </g>
   <g id="patch_4">
    <path d="M 175.247974 287.155392 
Q 171.057335 285.593806 166.866697 284.032219 
Q 170.630349 281.616661 174.394001 279.201102 
z
" clip-path="url(#p968442c0c9)" style="fill: #1f77b4"/>
   </g>
   <g id="patch_5">
    <path d="M 62.553346 218.082288 
Q 64.967326 214.317623 67.381306 210.552959 
Q 68.94465 214.742942 70.507993 218.932925 
z
" clip-path="url(#p968442c0c9)" style="fill: #1f77b4"/>
   </g>
   <g id="patch_6">
    <path d="M 336.739325 97.229168 
Q 338.284167 101.426007 339.82901 105.622847 
Q 335.544633 104.340617 331.260256 103.058388 
z
" clip-path="url(#p968442c0c9)" style="fill: #1f77b4"/>
   </g>
   <g id="patch_7">
    <path d="M 154.223106 33.494506 
Q 157.9765 35.925973 161.729894 38.35744 
Q 157.532684 39.901275 153.335474 41.44511 
z
" clip-path="url(#p968442c0c9)" style="fill: #1f77b4"/>
   </g>
   <g id="patch_8">
    <path d="M 64.385145 118.930803 
Q 65.921648 114.730903 67.458151 110.531004 
Q 69.896169 114.280146 72.334187 118.029288 
z
" clip-path="url(#p968442c0c9)" style="fill: #1f77b4"/>
   </g>
   <g id="matplotlib.axis_1">
    <g id="xtick_1">
     <g id="line2d_1">
      <path d="M 62.031193 299.518125 
L 62.031193 22.318125 
" clip-path="url(#p968442c0c9)" style="fill: none; stroke: #d3d3d3; stroke-width: 0.8; stroke-linecap: square"/>
     </g>
     <g id="line2d_2">
      <defs>
       <path id="m0fb5fa878f" d="M 0 0 
L 0 3.5 
" style="stroke: #000000; stroke-width: 0.8"/>
      </defs>
      <g>
       <use xlink:href="#m0fb5fa878f" x="62.031193" y="299.518125" style="stroke: #000000; stroke-width: 0.8"/>
      </g>
     </g>
     <g id="text_1">
      <!-- −2.5 -->
      <g transform="translate(49.889787 314.116563) scale(0.1 -0.1)">
       <defs>
        <path id="DejaVuSans-2212" d="M 678 2272 
L 4684 2272 
L 4684 1741 
L 678 1741 
L 678 2272 
z
" transform="scale(0.015625)"/>
        <path id="DejaVuSans-32" d="M 1228 531 
L 3431 531 
L 3431 0 
L 469 0 
L 469 531 
Q 828 903 1448 1529 
Q 2069 2156 2228 2338 
Q 2531 2678 2651 2914 
Q 2772 3150 2772 3378 
Q 2772 3750 2511 3984 
Q 2250 4219 1831 4219 
Q 1534 4219 1204 4116 
Q 875 4013 500 3803 
L 500 4441 
Q 881 4594 1212 4672 
Q 1544 4750 1819 4750 
Q 2544 4750 2975 4387 
Q 3406 4025 3406 3419 
Q 3406 3131 3298 2873 
Q 3191 2616 2906 2266 
Q 2828 2175 2409 1742 
Q 1991 1309 1228 531 
z
" transform="scale(0.015625)"/>
        <path id="DejaVuSans-2e" d="M 684 794 
L 1344 794 
L 1344 0 
L 684 0 
L 684 794 
z
" transform="scale(0.015625)"/>
        <path id="DejaVuSans-35" d="M 691 4666 
L 3169 4666 
L 3169 4134 
L 1269 4134 
L 1269 2991 
Q 1406 3038 1543 3061 
Q 1681 3084 1819 3084 
Q 2600 3084 3056 2656 
Q 3513 2228 3513 1497 
Q 3513 744 3044 326 
Q 2575 -91 1722 -91 
Q 1428 -91 1123 -41 
Q 819 9 494 109 
L 494 744 
Q 775 591 1075 516 
Q 1375 441 1709 441 
Q 2250 441 2565 725 
Q 2881 1009 2881 1497 
Q 2881 1984 2565 2268 
Q 2250 2553 1709 2553 
Q 1456 2553 1204 2497 
Q 953 2441 691 2322 
L 691 4666 
z
" transform="scale(0.015625)"/>
       </defs>
       <use xlink:href="#DejaVuSans-2212"/>
       <use xlink:href="#DejaVuSans-32" transform="translate(83.789062 0)"/>
       <use xlink:href="#DejaVuSans-2e" transform="translate(147.412109 0)"/>
       <use xlink:href="#DejaVuSans-35" transform="translate(179.199219 0)"/>
      </g>
     </g>
    </g>
    <g id="xtick_2">
     <g id="line2d_3">
      <path d="M 105.812413 299.518125 
L 105.812413 22.318125 
" clip-path="url(#p968442c0c9)" style="fill: none; stroke: #d3d3d3; stroke-width: 0.8; stroke-linecap: square"/>
     </g>
     <g id="line2d_4">
      <g>
       <use xlink:href="#m0fb5fa878f" x="105.812413" y="299.518125" style="stroke: #000000; stroke-width: 0.8"/>
      </g>
     </g>
     <g id="text_2">
      <!-- 0.0 -->
      <g transform="translate(97.860851 314.116563) scale(0.1 -0.1)">
       <defs>
        <path id="DejaVuSans-30" d="M 2034 4250 
Q 1547 4250 1301 3770 
Q 1056 3291 1056 2328 
Q 1056 1369 1301 889 
Q 1547 409 2034 409 
Q 2525 409 2770 889 
Q 3016 1369 3016 2328 
Q 3016 3291 2770 3770 
Q 2525 4250 2034 4250 
z
M 2034 4750 
Q 2819 4750 3233 4129 
Q 3647 3509 3647 2328 
Q 3647 1150 3233 529 
Q 2819 -91 2034 -91 
Q 1250 -91 836 529 
Q 422 1150 422 2328 
Q 422 3509 836 4129 
Q 1250 4750 2034 4750 
z
" transform="scale(0.015625)"/>
       </defs>
       <use xlink:href="#DejaVuSans-30"/>
       <use xlink:href="#DejaVuSans-2e" transform="translate(63.623047 0)"/>
       <use xlink:href="#DejaVuSans-30" transform="translate(95.410156 0)"/>
      </g>
     </g>
    </g>
    <g id="xtick_3">
     <g id="line2d_5">
      <path d="M 149.593633 299.518125 
L 149.593633 22.318125 
" clip-path="url(#p968442c0c9)" style="fill: none; stroke: #d3d3d3; stroke-width: 0.8; stroke-linecap: square"/>
     </g>
     <g id="line2d_6">
      <g>
       <use xlink:href="#m0fb5fa878f" x="149.593633" y="299.518125" style="stroke: #000000; stroke-width: 0.8"/>
      </g>
     </g>
     <g id="text_3">
      <!-- 2.5 -->
      <g transform="translate(141.642071 314.116563) scale(0.1 -0.1)">
       <use xlink:href="#DejaVuSans-32"/>
       <use xlink:href="#DejaVuSans-2e" transform="translate(63.623047 0)"/>
       <use xlink:href="#DejaVuSans-35" transform="translate(95.410156 0)"/>
      </g>
     </g>
    </g>
    <g id="xtick_4">
     <g id="line2d_7">
      <path d="M 193.374853 299.518125 
L 193.374853 22.318125 
" clip-path="url(#p968442c0c9)" style="fill: none; stroke: #d3d3d3; stroke-width: 0.8; stroke-linecap: square"/>
     </g>
     <g id="line2d_8">
      <g>
       <use xlink:href="#m0fb5fa878f" x="193.374853" y="299.518125" style="stroke: #000000; stroke-width: 0.8"/>
      </g>
     </g>
     <g id="text_4">
      <!-- 5.0 -->
      <g transform="translate(185.423291 314.116563) scale(0.1 -0.1)">
       <use xlink:href="#DejaVuSans-35"/>
       <use xlink:href="#DejaVuSans-2e" transform="translate(63.623047 0)"/>
       <use xlink:href="#DejaVuSans-30" transform="translate(95.410156 0)"/>
      </g>
     </g>
    </g>
    <g id="xtick_5">
     <g id="line2d_9">
      <path d="M 237.156073 299.518125 
L 237.156073 22.318125 
" clip-path="url(#p968442c0c9)" style="fill: none; stroke: #d3d3d3; stroke-width: 0.8; stroke-linecap: square"/>
     </g>
     <g id="line2d_10">
      <g>
       <use xlink:href="#m0fb5fa878f" x="237.156073" y="299.518125" style="stroke: #000000; stroke-width: 0.8"/>
      </g>
     </g>
     <g id="text_5">
      <!-- 7.5 -->
      <g transform="translate(229.204511 314.116563) scale(0.1 -0.1)">
       <defs>
        <path id="DejaVuSans-37" d="M 525 4666 
L 3525 4666 
L 3525 4397 
L 1831 0 
L 1172 0 
L 2766 4134 
L 525 4134 
L 525 4666 
z
" transform="scale(0.015625)"/>
       </defs>
       <use xlink:href="#DejaVuSans-37"/>
       <use xlink:href="#DejaVuSans-2e" transform="translate(63.623047 0)"/>
       <use xlink:href="#DejaVuSans-35" transform="translate(95.410156 0)"/>
      </g>
     </g>
    </g>
    <g id="xtick_6">
     <g id="line2d_11">
      <path d="M 280.937293 299.518125 
L 280.937293 22.318125 
" clip-path="url(#p968442c0c9)" style="fill: none; stroke: #d3d3d3; stroke-width: 0.8; stroke-linecap: square"/>
     </g>
     <g id="line2d_12">
      <g>
       <use xlink:href="#m0fb5fa878f" x="280.937293" y="299.518125" style="stroke: #000000; stroke-width: 0.8"/>
      </g>
     </g>
     <g id="text_6">
      <!-- 10.0 -->
      <g transform="translate(269.804481 314.116563) scale(0.1 -0.1)">
       <defs>
        <path id="DejaVuSans-31" d="M 794 531 
L 1825 531 
L 1825 4091 
L 703 3866 
L 703 4441 
L 1819 4666 
L 2450 4666 
L 2450 531 
L 3481 531 
L 3481 0 
L 794 0 
L 794 531 
z
" transform="scale(0.015625)"/>
       </defs>
       <use xlink:href="#DejaVuSans-31"/>
       <use xlink:href="#DejaVuSans-30" transform="translate(63.623047 0)"/>
       <use xlink:href="#DejaVuSans-2e" transform="translate(127.246094 0)"/>
       <use xlink:href="#DejaVuSans-30" transform="translate(159.033203 0)"/>
      </g>
     </g>
    </g>
    <g id="xtick_7">
     <g id="line2d_13">
      <path d="M 324.718513 299.518125 
L 324.718513 22.318125 
" clip-path="url(#p968442c0c9)" style="fill: none; stroke: #d3d3d3; stroke-width: 0.8; stroke-linecap: square"/>
     </g>
     <g id="line2d_14">
      <g>
       <use xlink:href="#m0fb5fa878f" x="324.718513" y="299.518125" style="stroke: #000000; stroke-width: 0.8"/>
      </g>
     </g>
     <g id="text_7">
      <!-- 12.5 -->
      <g transform="translate(313.585701 314.116563) scale(0.1 -0.1)">
       <use xlink:href="#DejaVuSans-31"/>
       <use xlink:href="#DejaVuSans-32" transform="translate(63.623047 0)"/>
       <use xlink:href="#DejaVuSans-2e" transform="translate(127.246094 0)"/>
       <use xlink:href="#DejaVuSans-35" transform="translate(159.033203 0)"/>
      </g>
     </g>
    </g>
    <g id="xtick_8">
     <g id="line2d_15">
      <path d="M 368.499733 299.518125 
L 368.499733 22.318125 
" clip-path="url(#p968442c0c9)" style="fill: none; stroke: #d3d3d3; stroke-width: 0.8; stroke-linecap: square"/>
     </g>
     <g id="line2d_16">
      <g>
       <use xlink:href="#m0fb5fa878f" x="368.499733" y="299.518125" style="stroke: #000000; stroke-width: 0.8"/>
      </g>
     </g>
     <g id="text_8">
      <!-- 15.0 -->
      <g transform="translate(357.366921 314.116563) scale(0.1 -0.1)">
       <use xlink:href="#DejaVuSans-31"/>
       <use xlink:href="#DejaVuSans-35" transform="translate(63.623047 0)"/>
       <use xlink:href="#DejaVuSans-2e" transform="translate(127.246094 0)"/>
       <use xlink:href="#DejaVuSans-30" transform="translate(159.033203 0)"/>
      </g>
     </g>
    </g>
    <g id="text_9">
     <!-- Real axis -->
     <g transform="translate(193.997656 327.794688) scale(0.1 -0.1)">
      <defs>
       <path id="DejaVuSans-52" d="M 2841 2188 
Q 3044 2119 3236 1894 
Q 3428 1669 3622 1275 
L 4263 0 
L 3584 0 
L 2988 1197 
Q 2756 1666 2539 1819 
Q 2322 1972 1947 1972 
L 1259 1972 
L 1259 0 
L 628 0 
L 628 4666 
L 2053 4666 
Q 2853 4666 3247 4331 
Q 3641 3997 3641 3322 
Q 3641 2881 3436 2590 
Q 3231 2300 2841 2188 
z
M 1259 4147 
L 1259 2491 
L 2053 2491 
Q 2509 2491 2742 2702 
Q 2975 2913 2975 3322 
Q 2975 3731 2742 3939 
Q 2509 4147 2053 4147 
L 1259 4147 
z
" transform="scale(0.015625)"/>
       <path id="DejaVuSans-65" d="M 3597 1894 
L 3597 1613 
L 953 1613 
Q 991 1019 1311 708 
Q 1631 397 2203 397 
Q 2534 397 2845 478 
Q 3156 559 3463 722 
L 3463 178 
Q 3153 47 2828 -22 
Q 2503 -91 2169 -91 
Q 1331 -91 842 396 
Q 353 884 353 1716 
Q 353 2575 817 3079 
Q 1281 3584 2069 3584 
Q 2775 3584 3186 3129 
Q 3597 2675 3597 1894 
z
M 3022 2063 
Q 3016 2534 2758 2815 
Q 2500 3097 2075 3097 
Q 1594 3097 1305 2825 
Q 1016 2553 972 2059 
L 3022 2063 
z
" transform="scale(0.015625)"/>
       <path id="DejaVuSans-61" d="M 2194 1759 
Q 1497 1759 1228 1600 
Q 959 1441 959 1056 
Q 959 750 1161 570 
Q 1363 391 1709 391 
Q 2188 391 2477 730 
Q 2766 1069 2766 1631 
L 2766 1759 
L 2194 1759 
z
M 3341 1997 
L 3341 0 
L 2766 0 
L 2766 531 
Q 2569 213 2275 61 
Q 1981 -91 1556 -91 
Q 1019 -91 701 211 
Q 384 513 384 1019 
Q 384 1609 779 1909 
Q 1175 2209 1959 2209 
L 2766 2209 
L 2766 2266 
Q 2766 2663 2505 2880 
Q 2244 3097 1772 3097 
Q 1472 3097 1187 3025 
Q 903 2953 641 2809 
L 641 3341 
Q 956 3463 1253 3523 
Q 1550 3584 1831 3584 
Q 2591 3584 2966 3190 
Q 3341 2797 3341 1997 
z
" transform="scale(0.015625)"/>
       <path id="DejaVuSans-6c" d="M 603 4863 
L 1178 4863 
L 1178 0 
L 603 0 
L 603 4863 
z
" transform="scale(0.015625)"/>
       <path id="DejaVuSans-20" transform="scale(0.015625)"/>
       <path id="DejaVuSans-78" d="M 3513 3500 
L 2247 1797 
L 3578 0 
L 2900 0 
L 1881 1375 
L 863 0 
L 184 0 
L 1544 1831 
L 300 3500 
L 978 3500 
L 1906 2253 
L 2834 3500 
L 3513 3500 
z
" transform="scale(0.015625)"/>
       <path id="DejaVuSans-69" d="M 603 3500 
L 1178 3500 
L 1178 0 
L 603 0 
L 603 3500 
z
M 603 4863 
L 1178 4863 
L 1178 4134 
L 603 4134 
L 603 4863 
z
" transform="scale(0.015625)"/>
       <path id="DejaVuSans-73" d="M 2834 3397 
L 2834 2853 
Q 2591 2978 2328 3040 
Q 2066 3103 1784 3103 
Q 1356 3103 1142 2972 
Q 928 2841 928 2578 
Q 928 2378 1081 2264 
Q 1234 2150 1697 2047 
L 1894 2003 
Q 2506 1872 2764 1633 
Q 3022 1394 3022 966 
Q 3022 478 2636 193 
Q 2250 -91 1575 -91 
Q 1294 -91 989 -36 
Q 684 19 347 128 
L 347 722 
Q 666 556 975 473 
Q 1284 391 1588 391 
Q 1994 391 2212 530 
Q 2431 669 2431 922 
Q 2431 1156 2273 1281 
Q 2116 1406 1581 1522 
L 1381 1569 
Q 847 1681 609 1914 
Q 372 2147 372 2553 
Q 372 3047 722 3315 
Q 1072 3584 1716 3584 
Q 2034 3584 2315 3537 
Q 2597 3491 2834 3397 
z
" transform="scale(0.015625)"/>
      </defs>
      <use xlink:href="#DejaVuSans-52"/>
      <use xlink:href="#DejaVuSans-65" transform="translate(64.982422 0)"/>
      <use xlink:href="#DejaVuSans-61" transform="translate(126.505859 0)"/>
      <use xlink:href="#DejaVuSans-6c" transform="translate(187.785156 0)"/>
      <use xlink:href="#DejaVuSans-20" transform="translate(215.568359 0)"/>
      <use xlink:href="#DejaVuSans-61" transform="translate(247.355469 0)"/>
      <use xlink:href="#DejaVuSans-78" transform="translate(308.634766 0)"/>
      <use xlink:href="#DejaVuSans-69" transform="translate(367.814453 0)"/>
      <use xlink:href="#DejaVuSans-73" transform="translate(395.597656 0)"/>
     </g>
    </g>
   </g>
   <g id="matplotlib.axis_2">
    <g id="ytick_1">
     <g id="line2d_17">
      <path d="M 48.982813 286.191005 
L 383.782813 286.191005 
" clip-path="url(#p968442c0c9)" style="fill: none; stroke: #d3d3d3; stroke-width: 0.8; stroke-linecap: square"/>
     </g>
     <g id="line2d_18">
      <defs>
       <path id="m7547bfe3ab" d="M 0 0 
L -3.5 0 
" style="stroke: #000000; stroke-width: 0.8"/>
      </defs>
      <g>
       <use xlink:href="#m7547bfe3ab" x="48.982813" y="286.191005" style="stroke: #000000; stroke-width: 0.8"/>
      </g>
     </g>
     <g id="text_10">
      <!-- −15 -->
      <g transform="translate(20.878125 289.990223) scale(0.1 -0.1)">
       <use xlink:href="#DejaVuSans-2212"/>
       <use xlink:href="#DejaVuSans-31" transform="translate(83.789062 0)"/>
       <use xlink:href="#DejaVuSans-35" transform="translate(147.412109 0)"/>
      </g>
     </g>
    </g>
    <g id="ytick_2">
     <g id="line2d_19">
      <path d="M 48.982813 244.191705 
L 383.782813 244.191705 
" clip-path="url(#p968442c0c9)" style="fill: none; stroke: #d3d3d3; stroke-width: 0.8; stroke-linecap: square"/>
     </g>
     <g id="line2d_20">
      <g>
       <use xlink:href="#m7547bfe3ab" x="48.982813" y="244.191705" style="stroke: #000000; stroke-width: 0.8"/>
      </g>
     </g>
     <g id="text_11">
      <!-- −10 -->
      <g transform="translate(20.878125 247.990924) scale(0.1 -0.1)">
       <use xlink:href="#DejaVuSans-2212"/>
       <use xlink:href="#DejaVuSans-31" transform="translate(83.789062 0)"/>
       <use xlink:href="#DejaVuSans-30" transform="translate(147.412109 0)"/>
      </g>
     </g>
    </g>
    <g id="ytick_3">
     <g id="line2d_21">
      <path d="M 48.982813 202.192405 
L 383.782813 202.192405 
" clip-path="url(#p968442c0c9)" style="fill: none; stroke: #d3d3d3; stroke-width: 0.8; stroke-linecap: square"/>
     </g>
     <g id="line2d_22">
      <g>
       <use xlink:href="#m7547bfe3ab" x="48.982813" y="202.192405" style="stroke: #000000; stroke-width: 0.8"/>
      </g>
     </g>
     <g id="text_12">
      <!-- −5 -->
      <g transform="translate(27.240625 205.991624) scale(0.1 -0.1)">
       <use xlink:href="#DejaVuSans-2212"/>
       <use xlink:href="#DejaVuSans-35" transform="translate(83.789062 0)"/>
      </g>
     </g>
    </g>
    <g id="ytick_4">
     <g id="line2d_23">
      <path d="M 48.982813 160.193106 
L 383.782813 160.193106 
" clip-path="url(#p968442c0c9)" style="fill: none; stroke: #d3d3d3; stroke-width: 0.8; stroke-linecap: square"/>
     </g>
     <g id="line2d_24">
      <g>
       <use xlink:href="#m7547bfe3ab" x="48.982813" y="160.193106" style="stroke: #000000; stroke-width: 0.8"/>
      </g>
     </g>
     <g id="text_13">
      <!-- 0 -->
      <g transform="translate(35.620312 163.992325) scale(0.1 -0.1)">
       <use xlink:href="#DejaVuSans-30"/>
      </g>
     </g>
    </g>
    <g id="ytick_5">
     <g id="line2d_25">
      <path d="M 48.982813 118.193806 
L 383.782813 118.193806 
" clip-path="url(#p968442c0c9)" style="fill: none; stroke: #d3d3d3; stroke-width: 0.8; stroke-linecap: square"/>
     </g>
     <g id="line2d_26">
      <g>
       <use xlink:href="#m7547bfe3ab" x="48.982813" y="118.193806" style="stroke: #000000; stroke-width: 0.8"/>
      </g>
     </g>
     <g id="text_14">
      <!-- 5 -->
      <g transform="translate(35.620312 121.993025) scale(0.1 -0.1)">
       <use xlink:href="#DejaVuSans-35"/>
      </g>
     </g>
    </g>
    <g id="ytick_6">
     <g id="line2d_27">
      <path d="M 48.982813 76.194507 
L 383.782813 76.194507 
" clip-path="url(#p968442c0c9)" style="fill: none; stroke: #d3d3d3; stroke-width: 0.8; stroke-linecap: square"/>
     </g>
     <g id="line2d_28">
      <g>
       <use xlink:href="#m7547bfe3ab" x="48.982813" y="76.194507" style="stroke: #000000; stroke-width: 0.8"/>
      </g>
     </g>
     <g id="text_15">
      <!-- 10 -->
      <g transform="translate(29.257812 79.993725) scale(0.1 -0.1)">
       <use xlink:href="#DejaVuSans-31"/>
       <use xlink:href="#DejaVuSans-30" transform="translate(63.623047 0)"/>
      </g>
     </g>
    </g>
    <g id="ytick_7">
     <g id="line2d_29">
      <path d="M 48.982813 34.195207 
L 383.782813 34.195207 
" clip-path="url(#p968442c0c9)" style="fill: none; stroke: #d3d3d3; stroke-width: 0.8; stroke-linecap: square"/>
     </g>
     <g id="line2d_30">
      <g>
       <use xlink:href="#m7547bfe3ab" x="48.982813" y="34.195207" style="stroke: #000000; stroke-width: 0.8"/>
      </g>
     </g>
     <g id="text_16">
      <!-- 15 -->
      <g transform="translate(29.257812 37.994426) scale(0.1 -0.1)">
       <use xlink:href="#DejaVuSans-31"/>
       <use xlink:href="#DejaVuSans-35" transform="translate(63.623047 0)"/>
      </g>
     </g>
    </g>
    <g id="text_17">
     <!-- Imaginary axis -->
     <g transform="translate(14.798437 197.744688) rotate(-90) scale(0.1 -0.1)">
      <defs>
       <path id="DejaVuSans-49" d="M 628 4666 
L 1259 4666 
L 1259 0 
L 628 0 
L 628 4666 
z
" transform="scale(0.015625)"/>
       <path id="DejaVuSans-6d" d="M 3328 2828 
Q 3544 3216 3844 3400 
Q 4144 3584 4550 3584 
Q 5097 3584 5394 3201 
Q 5691 2819 5691 2113 
L 5691 0 
L 5113 0 
L 5113 2094 
Q 5113 2597 4934 2840 
Q 4756 3084 4391 3084 
Q 3944 3084 3684 2787 
Q 3425 2491 3425 1978 
L 3425 0 
L 2847 0 
L 2847 2094 
Q 2847 2600 2669 2842 
Q 2491 3084 2119 3084 
Q 1678 3084 1418 2786 
Q 1159 2488 1159 1978 
L 1159 0 
L 581 0 
L 581 3500 
L 1159 3500 
L 1159 2956 
Q 1356 3278 1631 3431 
Q 1906 3584 2284 3584 
Q 2666 3584 2933 3390 
Q 3200 3197 3328 2828 
z
" transform="scale(0.015625)"/>
       <path id="DejaVuSans-67" d="M 2906 1791 
Q 2906 2416 2648 2759 
Q 2391 3103 1925 3103 
Q 1463 3103 1205 2759 
Q 947 2416 947 1791 
Q 947 1169 1205 825 
Q 1463 481 1925 481 
Q 2391 481 2648 825 
Q 2906 1169 2906 1791 
z
M 3481 434 
Q 3481 -459 3084 -895 
Q 2688 -1331 1869 -1331 
Q 1566 -1331 1297 -1286 
Q 1028 -1241 775 -1147 
L 775 -588 
Q 1028 -725 1275 -790 
Q 1522 -856 1778 -856 
Q 2344 -856 2625 -561 
Q 2906 -266 2906 331 
L 2906 616 
Q 2728 306 2450 153 
Q 2172 0 1784 0 
Q 1141 0 747 490 
Q 353 981 353 1791 
Q 353 2603 747 3093 
Q 1141 3584 1784 3584 
Q 2172 3584 2450 3431 
Q 2728 3278 2906 2969 
L 2906 3500 
L 3481 3500 
L 3481 434 
z
" transform="scale(0.015625)"/>
       <path id="DejaVuSans-6e" d="M 3513 2113 
L 3513 0 
L 2938 0 
L 2938 2094 
Q 2938 2591 2744 2837 
Q 2550 3084 2163 3084 
Q 1697 3084 1428 2787 
Q 1159 2491 1159 1978 
L 1159 0 
L 581 0 
L 581 3500 
L 1159 3500 
L 1159 2956 
Q 1366 3272 1645 3428 
Q 1925 3584 2291 3584 
Q 2894 3584 3203 3211 
Q 3513 2838 3513 2113 
z
" transform="scale(0.015625)"/>
       <path id="DejaVuSans-72" d="M 2631 2963 
Q 2534 3019 2420 3045 
Q 2306 3072 2169 3072 
Q 1681 3072 1420 2755 
Q 1159 2438 1159 1844 
L 1159 0 
L 581 0 
L 581 3500 
L 1159 3500 
L 1159 2956 
Q 1341 3275 1631 3429 
Q 1922 3584 2338 3584 
Q 2397 3584 2469 3576 
Q 2541 3569 2628 3553 
L 2631 2963 
z
" transform="scale(0.015625)"/>
       <path id="DejaVuSans-79" d="M 2059 -325 
Q 1816 -950 1584 -1140 
Q 1353 -1331 966 -1331 
L 506 -1331 
L 506 -850 
L 844 -850 
Q 1081 -850 1212 -737 
Q 1344 -625 1503 -206 
L 1606 56 
L 191 3500 
L 800 3500 
L 1894 763 
L 2988 3500 
L 3597 3500 
L 2059 -325 
z
" transform="scale(0.015625)"/>
      </defs>
      <use xlink:href="#DejaVuSans-49"/>
      <use xlink:href="#DejaVuSans-6d" transform="translate(29.492188 0)"/>
      <use xlink:href="#DejaVuSans-61" transform="translate(126.904297 0)"/>
      <use xlink:href="#DejaVuSans-67" transform="translate(188.183594 0)"/>
      <use xlink:href="#DejaVuSans-69" transform="translate(251.660156 0)"/>
      <use xlink:href="#DejaVuSans-6e" transform="translate(279.443359 0)"/>
      <use xlink:href="#DejaVuSans-61" transform="translate(342.822266 0)"/>
      <use xlink:href="#DejaVuSans-72" transform="translate(404.101562 0)"/>
      <use xlink:href="#DejaVuSans-79" transform="translate(445.214844 0)"/>
      <use xlink:href="#DejaVuSans-20" transform="translate(504.394531 0)"/>
      <use xlink:href="#DejaVuSans-61" transform="translate(536.181641 0)"/>
      <use xlink:href="#DejaVuSans-78" transform="translate(597.460938 0)"/>
      <use xlink:href="#DejaVuSans-69" transform="translate(656.640625 0)"/>
      <use xlink:href="#DejaVuSans-73" transform="translate(684.423828 0)"/>
     </g>
    </g>
   </g>
   <g id="line2d_31">
    <path d="M 64.811898 265.205592 
L 65.25551 246.390958 
L 65.790682 232.385944 
L 66.392281 221.924827 
L 67.088358 213.416289 
L 67.865118 206.471008 
L 68.700189 200.795629 
L 69.68058 195.614714 
L 70.685868 191.391474 
L 71.825941 187.50303 
L 73.106435 183.930119 
L 74.529125 180.657394 
L 76.090854 177.672808 
L 77.782662 174.966821 
L 79.589268 172.531446 
L 81.489091 170.359191 
L 83.454915 168.442002 
L 85.706007 166.578072 
L 87.952346 165.007868 
L 90.384184 163.58205 
L 92.912551 162.361461 
L 95.424172 161.386648 
L 97.962818 160.629089 
L 100.441443 160.114019 
L 102.727875 159.863385 
L 104.526237 159.878066 
L 105.630513 160.085917 
L 105.812413 160.193106 
L 105.812413 160.193106 
" clip-path="url(#p968442c0c9)" style="fill: none; stroke: #1f77b4; stroke-width: 1.5; stroke-linecap: square"/>
   </g>
   <g id="line2d_32">
    <path d="M 368.495297 160.193106 
L 368.55854 163.995073 
L 368.381724 167.802316 
L 367.963044 171.614807 
L 367.300019 175.432496 
L 366.389471 179.255316 
L 365.227491 183.083178 
L 363.80939 186.915974 
L 362.129645 190.753572 
L 360.181818 194.59582 
L 357.958468 198.442538 
L 355.451036 202.293522 
L 352.649704 206.148537 
L 349.543217 210.007321 
L 346.118673 213.869571 
L 342.36125 217.73495 
L 338.253867 221.603075 
L 333.776751 225.473512 
L 328.90689 229.345771 
L 323.617303 233.219291 
L 317.876093 237.09343 
L 312.719496 240.32182 
L 307.196771 243.549633 
L 301.276943 246.776305 
L 294.922934 250.001182 
L 288.089746 253.223497 
L 280.721871 256.442343 
L 272.749478 259.656618 
L 264.082603 262.864963 
L 256.570189 265.426223 
L 248.456914 267.981465 
L 239.635286 270.529243 
L 229.956762 273.067631 
L 219.205458 275.593935 
L 210.242878 277.47838 
L 200.271108 279.351226 
L 188.932058 281.208419 
L 180.311752 282.434524 
L 170.456305 283.646839 
L 158.685305 284.838166 
L 151.63501 285.421309 
L 143.247132 285.990331 
L 132.286709 286.532664 
L 104.618398 286.82506 
L 97.796576 286.152412 
L 91.799911 285.34405 
L 86.813509 284.461794 
L 82.60425 283.508456 
L 79.064487 282.494066 
L 76.052669 281.405508 
L 73.482735 280.22872 
L 71.489679 279.073874 
L 69.817132 277.847818 
L 68.501527 276.620241 
L 67.551449 275.50068 
L 66.659637 274.14996 
L 65.863976 272.48433 
L 65.415257 271.137221 
L 65.061764 269.536249 
L 64.841924 267.598878 
L 64.811898 265.205592 
L 64.811898 265.205592 
" clip-path="url(#p968442c0c9)" style="fill: none; stroke-dasharray: 9.6,2.4,1.5,2.4; stroke-dashoffset: 0; stroke: #1f77b4; stroke-width: 1.5"/>
   </g>
   <g id="line2d_33"/>
   <g id="line2d_34">
    <path d="M 64.811898 55.18062 
L 65.25551 73.995254 
L 65.790682 88.000268 
L 66.392281 98.461385 
L 67.088358 106.969922 
L 67.865118 113.915204 
L 68.700189 119.590583 
L 69.68058 124.771498 
L 70.685868 128.994737 
L 71.825941 132.883182 
L 73.106435 136.456093 
L 74.529125 139.728818 
L 76.090854 142.713404 
L 77.782662 145.419391 
L 79.589268 147.854766 
L 81.489091 150.027021 
L 83.454915 151.94421 
L 85.706007 153.80814 
L 87.952346 155.378344 
L 90.384184 156.804162 
L 92.912551 158.024751 
L 95.424172 158.999564 
L 97.962818 159.757123 
L 100.441443 160.272193 
L 102.727875 160.522827 
L 104.526237 160.508146 
L 105.630513 160.300295 
L 105.812413 160.193106 
L 105.812413 160.193106 
" clip-path="url(#p968442c0c9)" style="fill: none; stroke-dasharray: 5.55,2.4; stroke-dashoffset: 0; stroke: #1f77b4; stroke-width: 1.5"/>
   </g>
   <g id="line2d_35">
    <path d="M 368.495297 160.193106 
L 368.193147 156.396426 
L 367.652585 152.605026 
L 366.873451 148.818878 
L 365.854918 145.037936 
L 364.595466 141.262135 
L 363.092854 137.491388 
L 361.344074 133.725591 
L 359.345296 129.964615 
L 357.091796 126.208308 
L 354.577866 122.456496 
L 351.796704 118.708977 
L 348.740278 114.96552 
L 345.399156 111.225863 
L 341.762296 107.489711 
L 337.816782 103.756729 
L 333.547495 100.026539 
L 328.936689 96.298711 
L 323.963452 92.57276 
L 318.602998 88.84813 
L 312.825734 85.124186 
L 306.595997 81.400193 
L 299.870315 77.675296 
L 292.59496 73.948482 
L 286.064065 70.840474 
L 279.055926 67.729459 
L 271.509218 64.61443 
L 263.345423 61.494155 
L 254.461303 58.367084 
L 246.742751 55.859203 
L 238.376877 53.344358 
L 229.230027 50.820783 
L 219.110324 48.28604 
L 210.7115 46.375562 
L 201.415113 44.454591 
L 190.924076 42.519717 
L 178.718992 40.56515 
L 169.143824 39.245886 
L 157.685145 37.905871 
L 150.808566 37.223483 
L 142.612913 36.527135 
L 131.877911 35.8044 
L 104.60046 34.997303 
L 97.694663 35.53963 
L 91.770564 36.218229 
L 86.759552 37.00159 
L 82.524306 37.874053 
L 78.959653 38.82398 
L 75.925349 39.862349 
L 73.666543 40.839946 
L 71.666757 41.925666 
L 69.984268 43.084695 
L 68.656586 44.249827 
L 67.383846 45.716799 
L 66.501064 47.095665 
L 65.725364 48.813851 
L 65.299857 50.217745 
L 64.982166 51.902875 
L 64.817665 53.96662 
L 64.811898 55.18062 
L 64.811898 55.18062 
" clip-path="url(#p968442c0c9)" style="fill: none; stroke-dasharray: 1.5,2.475; stroke-dashoffset: 0; stroke: #1f77b4; stroke-width: 1.5"/>
   </g>
   <g id="line2d_36"/>
   <g id="line2d_37">
    <defs>
     <path id="mfce4a8138f" d="M 0 2 
C 0.530406 2 1.03916 1.789267 1.414214 1.414214 
C 1.789267 1.03916 2 0.530406 2 0 
C 2 -0.530406 1.789267 -1.03916 1.414214 -1.414214 
C 1.03916 -1.789267 0.530406 -2 0 -2 
C -0.530406 -2 -1.03916 -1.789267 -1.414214 -1.414214 
C -1.789267 -1.03916 -2 -0.530406 -2 0 
C -2 0.530406 -1.789267 1.03916 -1.414214 1.414214 
C -1.03916 1.789267 -0.530406 2 0 2 
z
" style="stroke: #1f77b4"/>
    </defs>
    <g clip-path="url(#p968442c0c9)">
     <use xlink:href="#mfce4a8138f" x="368.495297" y="160.193106" style="fill: #1f77b4; stroke: #1f77b4"/>
    </g>
   </g>
   <g id="line2d_38">
    <defs>
     <path id="m8dfc0ff218" d="M -3 0 
L 3 0 
M 0 3 
L 0 -3 
" style="stroke: #ff0000"/>
    </defs>
    <g clip-path="url(#p968442c0c9)">
     <use xlink:href="#m8dfc0ff218" x="88.299925" y="160.193106" style="fill: #ff0000; stroke: #ff0000"/>
    </g>
   </g>
   <g id="patch_9">
    <path d="M 48.982813 299.518125 
L 48.982813 22.318125 
" style="fill: none; stroke: #000000; stroke-width: 0.8; stroke-linejoin: miter; stroke-linecap: square"/>
   </g>
   <g id="patch_10">
    <path d="M 383.782813 299.518125 
L 383.782813 22.318125 
" style="fill: none; stroke: #000000; stroke-width: 0.8; stroke-linejoin: miter; stroke-linecap: square"/>
   </g>
   <g id="patch_11">
    <path d="M 48.982813 299.518125 
L 383.782812 299.518125 
" style="fill: none; stroke: #000000; stroke-width: 0.8; stroke-linejoin: miter; stroke-linecap: square"/>
   </g>
   <g id="patch_12">
    <path d="M 48.982813 22.318125 
L 383.782812 22.318125 
" style="fill: none; stroke: #000000; stroke-width: 0.8; stroke-linejoin: miter; stroke-linecap: square"/>
   </g>
   <g id="text_18">
    <!-- Nyquist Plot of G(s) = 10/(s(s+1)(s+5)) -->
    <g transform="translate(98.706875 16.318125) scale(0.12 -0.12)">
     <defs>
      <path id="DejaVuSans-4e" d="M 628 4666 
L 1478 4666 
L 3547 763 
L 3547 4666 
L 4159 4666 
L 4159 0 
L 3309 0 
L 1241 3903 
L 1241 0 
L 628 0 
L 628 4666 
z
" transform="scale(0.015625)"/>
      <path id="DejaVuSans-71" d="M 947 1747 
Q 947 1113 1208 752 
Q 1469 391 1925 391 
Q 2381 391 2643 752 
Q 2906 1113 2906 1747 
Q 2906 2381 2643 2742 
Q 2381 3103 1925 3103 
Q 1469 3103 1208 2742 
Q 947 2381 947 1747 
z
M 2906 525 
Q 2725 213 2448 61 
Q 2172 -91 1784 -91 
Q 1150 -91 751 415 
Q 353 922 353 1747 
Q 353 2572 751 3078 
Q 1150 3584 1784 3584 
Q 2172 3584 2448 3432 
Q 2725 3281 2906 2969 
L 2906 3500 
L 3481 3500 
L 3481 -1331 
L 2906 -1331 
L 2906 525 
z
" transform="scale(0.015625)"/>
      <path id="DejaVuSans-75" d="M 544 1381 
L 544 3500 
L 1119 3500 
L 1119 1403 
Q 1119 906 1312 657 
Q 1506 409 1894 409 
Q 2359 409 2629 706 
Q 2900 1003 2900 1516 
L 2900 3500 
L 3475 3500 
L 3475 0 
L 2900 0 
L 2900 538 
Q 2691 219 2414 64 
Q 2138 -91 1772 -91 
Q 1169 -91 856 284 
Q 544 659 544 1381 
z
M 1991 3584 
L 1991 3584 
z
" transform="scale(0.015625)"/>
      <path id="DejaVuSans-74" d="M 1172 4494 
L 1172 3500 
L 2356 3500 
L 2356 3053 
L 1172 3053 
L 1172 1153 
Q 1172 725 1289 603 
Q 1406 481 1766 481 
L 2356 481 
L 2356 0 
L 1766 0 
Q 1100 0 847 248 
Q 594 497 594 1153 
L 594 3053 
L 172 3053 
L 172 3500 
L 594 3500 
L 594 4494 
L 1172 4494 
z
" transform="scale(0.015625)"/>
      <path id="DejaVuSans-50" d="M 1259 4147 
L 1259 2394 
L 2053 2394 
Q 2494 2394 2734 2622 
Q 2975 2850 2975 3272 
Q 2975 3691 2734 3919 
Q 2494 4147 2053 4147 
L 1259 4147 
z
M 628 4666 
L 2053 4666 
Q 2838 4666 3239 4311 
Q 3641 3956 3641 3272 
Q 3641 2581 3239 2228 
Q 2838 1875 2053 1875 
L 1259 1875 
L 1259 0 
L 628 0 
L 628 4666 
z
" transform="scale(0.015625)"/>
      <path id="DejaVuSans-6f" d="M 1959 3097 
Q 1497 3097 1228 2736 
Q 959 2375 959 1747 
Q 959 1119 1226 758 
Q 1494 397 1959 397 
Q 2419 397 2687 759 
Q 2956 1122 2956 1747 
Q 2956 2369 2687 2733 
Q 2419 3097 1959 3097 
z
M 1959 3584 
Q 2709 3584 3137 3096 
Q 3566 2609 3566 1747 
Q 3566 888 3137 398 
Q 2709 -91 1959 -91 
Q 1206 -91 779 398 
Q 353 888 353 1747 
Q 353 2609 779 3096 
Q 1206 3584 1959 3584 
z
" transform="scale(0.015625)"/>
      <path id="DejaVuSans-66" d="M 2375 4863 
L 2375 4384 
L 1825 4384 
Q 1516 4384 1395 4259 
Q 1275 4134 1275 3809 
L 1275 3500 
L 2222 3500 
L 2222 3053 
L 1275 3053 
L 1275 0 
L 697 0 
L 697 3053 
L 147 3053 
L 147 3500 
L 697 3500 
L 697 3744 
Q 697 4328 969 4595 
Q 1241 4863 1831 4863 
L 2375 4863 
z
" transform="scale(0.015625)"/>
      <path id="DejaVuSans-47" d="M 3809 666 
L 3809 1919 
L 2778 1919 
L 2778 2438 
L 4434 2438 
L 4434 434 
Q 4069 175 3628 42 
Q 3188 -91 2688 -91 
Q 1594 -91 976 548 
Q 359 1188 359 2328 
Q 359 3472 976 4111 
Q 1594 4750 2688 4750 
Q 3144 4750 3555 4637 
Q 3966 4525 4313 4306 
L 4313 3634 
Q 3963 3931 3569 4081 
Q 3175 4231 2741 4231 
Q 1884 4231 1454 3753 
Q 1025 3275 1025 2328 
Q 1025 1384 1454 906 
Q 1884 428 2741 428 
Q 3075 428 3337 486 
Q 3600 544 3809 666 
z
" transform="scale(0.015625)"/>
      <path id="DejaVuSans-28" d="M 1984 4856 
Q 1566 4138 1362 3434 
Q 1159 2731 1159 2009 
Q 1159 1288 1364 580 
Q 1569 -128 1984 -844 
L 1484 -844 
Q 1016 -109 783 600 
Q 550 1309 550 2009 
Q 550 2706 781 3412 
Q 1013 4119 1484 4856 
L 1984 4856 
z
" transform="scale(0.015625)"/>
      <path id="DejaVuSans-29" d="M 513 4856 
L 1013 4856 
Q 1481 4119 1714 3412 
Q 1947 2706 1947 2009 
Q 1947 1309 1714 600 
Q 1481 -109 1013 -844 
L 513 -844 
Q 928 -128 1133 580 
Q 1338 1288 1338 2009 
Q 1338 2731 1133 3434 
Q 928 4138 513 4856 
z
" transform="scale(0.015625)"/>
      <path id="DejaVuSans-3d" d="M 678 2906 
L 4684 2906 
L 4684 2381 
L 678 2381 
L 678 2906 
z
M 678 1631 
L 4684 1631 
L 4684 1100 
L 678 1100 
L 678 1631 
z
" transform="scale(0.015625)"/>
      <path id="DejaVuSans-2f" d="M 1625 4666 
L 2156 4666 
L 531 -594 
L 0 -594 
L 1625 4666 
z
" transform="scale(0.015625)"/>
      <path id="DejaVuSans-2b" d="M 2944 4013 
L 2944 2272 
L 4684 2272 
L 4684 1741 
L 2944 1741 
L 2944 0 
L 2419 0 
L 2419 1741 
L 678 1741 
L 678 2272 
L 2419 2272 
L 2419 4013 
L 2944 4013 
z
" transform="scale(0.015625)"/>
     </defs>
     <use xlink:href="#DejaVuSans-4e"/>
     <use xlink:href="#DejaVuSans-79" transform="translate(74.804688 0)"/>
     <use xlink:href="#DejaVuSans-71" transform="translate(133.984375 0)"/>
     <use xlink:href="#DejaVuSans-75" transform="translate(197.460938 0)"/>
     <use xlink:href="#DejaVuSans-69" transform="translate(260.839844 0)"/>
     <use xlink:href="#DejaVuSans-73" transform="translate(288.623047 0)"/>
     <use xlink:href="#DejaVuSans-74" transform="translate(340.722656 0)"/>
     <use xlink:href="#DejaVuSans-20" transform="translate(379.931641 0)"/>
     <use xlink:href="#DejaVuSans-50" transform="translate(411.71875 0)"/>
     <use xlink:href="#DejaVuSans-6c" transform="translate(472.021484 0)"/>
     <use xlink:href="#DejaVuSans-6f" transform="translate(499.804688 0)"/>
     <use xlink:href="#DejaVuSans-74" transform="translate(560.986328 0)"/>
     <use xlink:href="#DejaVuSans-20" transform="translate(600.195312 0)"/>
     <use xlink:href="#DejaVuSans-6f" transform="translate(631.982422 0)"/>
     <use xlink:href="#DejaVuSans-66" transform="translate(693.164062 0)"/>
     <use xlink:href="#DejaVuSans-20" transform="translate(728.369141 0)"/>
     <use xlink:href="#DejaVuSans-47" transform="translate(760.15625 0)"/>
     <use xlink:href="#DejaVuSans-28" transform="translate(837.646484 0)"/>
     <use xlink:href="#DejaVuSans-73" transform="translate(876.660156 0)"/>
     <use xlink:href="#DejaVuSans-29" transform="translate(928.759766 0)"/>
     <use xlink:href="#DejaVuSans-20" transform="translate(967.773438 0)"/>
     <use xlink:href="#DejaVuSans-3d" transform="translate(999.560547 0)"/>
     <use xlink:href="#DejaVuSans-20" transform="translate(1083.349609 0)"/>
     <use xlink:href="#DejaVuSans-31" transform="translate(1115.136719 0)"/>
     <use xlink:href="#DejaVuSans-30" transform="translate(1178.759766 0)"/>
     <use xlink:href="#DejaVuSans-2f" transform="translate(1242.382812 0)"/>
     <use xlink:href="#DejaVuSans-28" transform="translate(1276.074219 0)"/>
     <use xlink:href="#DejaVuSans-73" transform="translate(1315.087891 0)"/>
     <use xlink:href="#DejaVuSans-28" transform="translate(1367.1875 0)"/>
     <use xlink:href="#DejaVuSans-73" transform="translate(1406.201172 0)"/>
     <use xlink:href="#DejaVuSans-2b" transform="translate(1458.300781 0)"/>
     <use xlink:href="#DejaVuSans-31" transform="translate(1542.089844 0)"/>
     <use xlink:href="#DejaVuSans-29" transform="translate(1605.712891 0)"/>
     <use xlink:href="#DejaVuSans-28" transform="translate(1644.726562 0)"/>
     <use xlink:href="#DejaVuSans-73" transform="translate(1683.740234 0)"/>
     <use xlink:href="#DejaVuSans-2b" transform="translate(1735.839844 0)"/>
     <use xlink:href="#DejaVuSans-35" transform="translate(1819.628906 0)"/>
     <use xlink:href="#DejaVuSans-29" transform="translate(1883.251953 0)"/>
     <use xlink:href="#DejaVuSans-29" transform="translate(1922.265625 0)"/>
    </g>
   </g>
  </g>
 </g>
 <defs>
  <clipPath id="p968442c0c9">
   <rect x="48.982813" y="22.318125" width="334.8" height="277.2"/>
  </clipPath>
 </defs>
</svg>
